<svg version="1.0" xmlns="http://www.w3.org/2000/svg" width="1882.667" height="1512" viewBox="0 0 1412 1134"><path d="M432.5 225.1c-12.1.3-31.1.7-42.1.8-21.5.1-22 .2-20.7 5 .3 1.2.6 2.2.7 2.2 0 .1 8 .4 17.6.8 17.1.6 17.7.7 24.3 3.8 8.2 3.9 17.2 12.6 20.6 19.9C438.3 269 438 255 438 490c0 234 .2 221.4-4.6 232-4 8.7-14.5 18.1-24.4 22-4.5 1.8-8.5 2.3-22 2.8-16.1.7-16.5.8-16.8 3l-.3 2.2h141.2c152.9 0 148.6.1 172.4-5.5 57.1-13.4 99-35.5 129.9-68.4 2.7-2.9 5.4-5 6-4.7 2.5 1.1 39.5 15.8 44.1 17.5 58.6 21.8 91.7 45.1 109.2 76.9 8.5 15.4 12.3 30.9 12.3 50 0 17.3-2.3 28.2-8.4 40.8-8.3 16.9-20.7 30-41.6 44.1-12.9 8.6-38.7 18.9-58 23.1-25.5 5.5-44 6.1-73.5 2.3-23.8-3.1-47.7-11.5-66.8-23.8-40.3-25.8-72.9-76.3-88.6-137.4-2.8-11.1-4.5-14.6-5.6-11.8-.3.8-.4 44.1-.3 96.4.3 93.7.3 95 2.3 95 1.6 0 2.1-1.1 3-7 3.8-25.5 25.3-36.8 58.4-31 10.5 1.9 12.9 2.5 29.6 8 15.4 5.1 25.1 7.7 39.3 10.5 28.6 5.6 42.9 7 71.7 7 41.3 0 69.2-4.8 97.5-16.8 38.7-16.3 68.7-44 85.7-79.2 11.5-23.7 16.8-50.3 14.3-72.1-1.9-17.3-6.1-32-13.3-46.4-21.8-43.7-67.7-81.2-128.2-104.9C844 591.7 820.6 581.8 797 570c-50.9-25.4-77.5-51.1-87-84.1-2.7-9.3-3.8-28.7-2.1-38.5 6.1-35.2 29.2-60.5 66.1-72.4 7.2-2.4 20.9-5.5 21.4-4.9.6.6 7.3 34.2 8.1 40.4.3 2.7 1.2 9.8 2 15.7.8 5.9 2.1 19.6 2.9 30.5 1.7 22.3 2.7 28.2 6.2 38.9 8.6 26.6 28.5 48.8 54.6 61.3 3.7 1.8 7.2 3 7.6 2.7 2-1.2 5.2-39.4 5.2-62.1 0-42.9-7.1-86.5-19.1-116.5-4.5-11.2-4.5-11-1.8-11 4.5 0 22.1 4 31 7 43.9 14.7 73.4 48.2 85 96.5 1.5 6.2 3.7 22 4.4 32 .4 4.9 1.2 9.6 1.7 10.2 1.4 1.7 3.3 1.6 5.2-.3 1.4-1.4 1.6-9.4 1.6-73.8 0-64-.2-72.5-1.5-73.6-2-1.7-2.8-.7-4.3 5.3-3.4 13.7-14.4 20.7-32.3 20.7h-8.7l-13.3-6.9c-20.9-10.8-35.6-16.3-59.3-22.1-8.7-2.1-15.9-4-16.1-4.2-.1-.2-1.2-2.4-2.3-5.1-7.3-16.7-23.8-39.4-41.1-56.8-15.5-15.5-21.4-20.4-35.5-29.7-10.1-6.6-32.3-18.3-38.5-20.3-1.4-.4-6.4-2.2-11.1-3.9-26.5-9.9-59-15.4-110.4-19-24.1-1.7-37.7-2-94.6-1.8-36.6.1-76.4.5-88.5.9zm201.9 6c28.9 3.5 53.2 11.1 77 24.2 14.2 7.8 25.1 16 37.9 28.6 20.2 19.8 33.2 41.1 41.3 67.5 2.9 9.6 2.9 10.6.5 10.6-2.5 0-24.1 5.6-31.6 8.2-12.5 4.3-29 11.8-38 17.2-6.8 4-22 15.5-27.6 20.8-8.9 8.4-20.3 23.6-25.7 34.4-3.5 6.8-9.2 22.7-9.2 25.5 0 1.4-.4 2.9-.9 3.5-.5.5-1.7 6.5-2.7 13.3-3.3 24-.2 51.1 8.6 72.8 4.8 12 9 18.8 17.6 28.7 18.4 21 50 43.9 86.6 62.6 3.8 1.9 6.8 4.1 6.8 4.8 0 .7-3.2 6.6-7.1 13-26.1 43-59.6 69.2-98.8 77.2-9.4 1.9-13.6 2-78.4 2h-68.4l-4-2.9c-2.2-1.6-5-4.9-6.2-7.3l-2.1-4.4V488.2c0-216.7.2-243.7 1.5-246.9 1.9-4.5 4-7 8-9.4 2.8-1.8 6.1-1.9 54.4-1.9 31.3 0 54.9.4 60.5 1.1z"/></svg>