<svg aria-hidden="true" style="position: absolute; width: 0; height: 0; overflow: hidden;" version="1.1" xmlns="http://www.w3.org/2000/svg" xmlns:xlink="http://www.w3.org/1999/xlink">
<defs>
<symbol id="icon-close-round" viewBox="0 0 32 32">
<path d="M16 0v0c-8.836 0-16 7.163-16 16s7.164 16 16 16c8.837 0 16-7.163 16-16s-7.164-16-16-16zM21.281 9.434c0.355-0.355 0.93-0.355 1.285 0s0.355 0.93 0 1.285l-5.281 5.28 5.281 5.281c0.355 0.355 0.355 0.93 0 1.286s-0.93 0.355-1.285 0l-5.281-5.281-5.281 5.281c-0.355 0.355-0.93 0.355-1.285 0s-0.355-0.93 0-1.286l5.281-5.281-5.281-5.28c-0.355-0.355-0.355-0.93 0-1.285s0.93-0.355 1.285 0l5.281 5.281 5.281-5.281z"></path>
</symbol>
<symbol id="icon-menu" viewBox="0 0 32 32">
<path d="M2 6h28v6h-28zM2 14h28v6h-28zM2 22h28v6h-28z"></path>
</symbol>
<symbol id="icon-github" viewBox="0 0 32 32">
<path d="M15.999 0.399c-8.835 0-15.999 7.163-15.999 15.999 0 7.070 4.584 13.065 10.941 15.181 0.8 0.148 1.094-0.348 1.094-0.771 0-0.381-0.016-1.642-0.022-2.978-4.452 0.968-5.39-1.889-5.39-1.889-0.728-1.85-1.776-2.342-1.776-2.342-1.452-0.994 0.11-0.972 0.11-0.972 1.606 0.112 2.452 1.648 2.452 1.648 1.428 2.446 3.744 1.738 4.657 1.33 0.144-1.034 0.557-1.74 1.016-2.14-3.554-0.403-7.29-1.776-7.29-7.907 0-1.746 0.626-3.174 1.648-4.294-0.167-0.404-0.715-2.030 0.154-4.234 0 0 1.344-0.431 4.401 1.64 1.276-0.354 2.644-0.532 4.003-0.538 1.36 0.006 2.731 0.184 4.008 0.538 3.054-2.069 4.396-1.64 4.396-1.64 0.87 2.204 0.324 3.832 0.158 4.234 1.026 1.12 1.646 2.548 1.646 4.294 0 6.145-3.744 7.497-7.306 7.893 0.574 0.496 1.087 1.47 1.087 2.962 0 2.14-0.018 3.864-0.018 4.39 0 0.426 0.288 0.924 1.1 0.768 6.354-2.118 10.932-8.114 10.932-15.179 0-8.835-7.163-15.999-16-15.999l-0.001 0.005z"></path>
</symbol>
<symbol id="icon-linkedin" viewBox="0 0 32 32">
<path fill="#000" style="fill: var(--color1, #000)" d="M7.226 0.063h17.549c3.991 0 7.226 3.235 7.226 7.226v17.401c0 3.991-3.235 7.226-7.226 7.226h-17.549c-3.991 0-7.226-3.235-7.226-7.226v-17.401c0-3.991 3.235-7.226 7.226-7.226z"></path>
<path fill="#fff" style="fill: var(--color2, #fff)" d="M12.811 12.409h4.043v2.072h0.059c0.563-1.010 1.94-2.072 3.993-2.072 4.269 0 5.059 2.657 5.059 6.113v7.308h-4.216l-0.001-6.508c0-1.488-0.031-3.403-2.192-3.403-2.195 0-2.532 1.619-2.532 3.295v6.616h-4.213v-13.421zM10.421 8.341c0 1.21-0.982 2.192-2.192 2.192s-2.193-0.982-2.193-2.192c0-1.211 0.982-2.192 2.193-2.192s2.192 0.982 2.192 2.192zM6.036 12.409h4.386v13.421h-4.386v-13.421z"></path>
</symbol>
<symbol id="icon-mail" viewBox="0 0 32 32">
<path d="M15.885 22.892l6.302-6.301 9.584 9.583h-31.771l9.583-9.583 6.302 6.301zM0.364 5.724l15.52 15.52 15.521-15.52h-31.041zM0 23.85l8.228-8.228-8.228-8.228v16.456zM31.969 24.637l-9.015-9.015 9.015-9.015v18.031z"></path>
</symbol>
<symbol id="icon-telegram" viewBox="0 0 32 32">
<path d="M16 0c-8.837 0-16 7.163-16 16s7.163 16 16 16c8.837 0 16-7.163 16-16s-7.163-16-16-16zM23.701 8.756l-2.855 14.392s-0.399 0.998-1.497 0.519l-6.567-5.17s7.306-6.567 7.605-6.847c0.299-0.279 0.2-0.339 0.2-0.339 0.020-0.339-0.539 0-0.539 0l-9.681 6.148-4.032-1.357s-0.619-0.22-0.679-0.699c-0.060-0.479 0.699-0.739 0.699-0.739l16.029-6.288s1.317-0.579 1.317 0.379zM15.288 20.553l-2.606 2.375s-0.204 0.154-0.427 0.058l0.499-4.413 2.533 1.979z"></path>
</symbol>
<symbol id="icon-whatsapp" viewBox="0 0 32 32">
<path d="M27.293 4.654c-2.996-3-6.981-4.653-11.226-4.654-8.748 0-15.868 7.119-15.871 15.87-0.002 2.797 0.73 5.528 2.119 7.934l-2.252 8.225 8.414-2.207c2.318 1.265 4.928 1.931 7.584 1.931h0.007c8.747 0 15.867-7.12 15.87-15.87 0.002-4.241-1.648-8.228-4.644-11.228v-0.001zM16.067 29.073h-0.005c-2.367-0.001-4.689-0.637-6.714-1.839l-0.482-0.286-4.993 1.31 1.332-4.868-0.314-0.499c-1.32-2.1-2.018-4.528-2.017-7.020 0.003-7.273 5.921-13.19 13.197-13.19 3.523 0.002 6.835 1.375 9.326 3.869s3.861 5.808 3.86 9.332c-0.003 7.274-5.921 13.191-13.191 13.191v0.001zM23.302 19.194c-0.396-0.199-2.346-1.157-2.71-1.29s-0.628-0.199-0.892 0.199c-0.264 0.397-1.024 1.291-1.256 1.555s-0.463 0.298-0.859 0.099c-0.396-0.199-1.674-0.617-3.189-1.968-1.179-1.052-1.975-2.35-2.206-2.747s-0.024-0.612 0.173-0.809c0.178-0.178 0.396-0.463 0.595-0.695s0.264-0.397 0.396-0.661c0.133-0.265 0.066-0.496-0.033-0.695s-0.892-2.151-1.223-2.944c-0.322-0.773-0.649-0.668-0.892-0.681-0.231-0.011-0.495-0.014-0.76-0.014s-0.694 0.099-1.058 0.496c-0.364 0.397-1.388 1.357-1.388 3.308s1.421 3.838 1.619 4.103c0.199 0.265 2.797 4.27 6.774 5.988 0.946 0.409 1.685 0.653 2.261 0.835 0.95 0.302 1.814 0.26 2.497 0.157 0.762-0.114 2.346-0.96 2.677-1.886s0.33-1.721 0.231-1.886c-0.099-0.165-0.364-0.265-0.76-0.463l0.001-0.002z"></path>
</symbol>
<symbol id="icon-menu1" viewBox="0 0 32 32">
<path d="M2 6h28v6h-28zM2 14h28v6h-28zM2 22h28v6h-28z"></path>
</symbol>
</defs>
</svg>
