<svg aria-hidden="true" style="position: absolute; width: 0; height: 0; overflow: hidden;" version="1.1" xmlns="http://www.w3.org/2000/svg" xmlns:xlink="http://www.w3.org/1999/xlink">
<defs>
<symbol id="icon-logo-ds" viewBox="0 0 32 32">
<path d="M9.8 8.253c-0.274 0.007-0.705 0.016-0.954 0.018-0.487 0.002-0.498 0.005-0.469 0.113 0.007 0.027 0.014 0.050 0.016 0.050 0 0.002 0.181 0.009 0.399 0.018 0.387 0.014 0.401 0.016 0.551 0.086 0.186 0.088 0.39 0.286 0.467 0.451 0.122 0.258 0.116-0.059 0.116 5.266 0 5.302 0.005 5.017-0.104 5.257-0.091 0.197-0.329 0.41-0.553 0.498-0.102 0.041-0.193 0.052-0.498 0.063-0.365 0.016-0.374 0.018-0.381 0.068l-0.007 0.050h3.199c3.465 0 3.367 0.002 3.906-0.125 1.294-0.304 2.243-0.804 2.943-1.55 0.061-0.066 0.122-0.113 0.136-0.107 0.057 0.025 0.895 0.358 0.999 0.397 1.328 0.494 2.078 1.022 2.474 1.742 0.193 0.349 0.279 0.7 0.279 1.133 0 0.392-0.052 0.639-0.19 0.924-0.188 0.383-0.469 0.68-0.943 0.999-0.292 0.195-0.877 0.428-1.314 0.523-0.578 0.125-0.997 0.138-1.665 0.052-0.539-0.070-1.081-0.261-1.514-0.539-0.913-0.585-1.652-1.729-2.008-3.113-0.063-0.252-0.102-0.331-0.127-0.267-0.007 0.018-0.009 0.999-0.007 2.184 0.007 2.123 0.007 2.153 0.052 2.153 0.036 0 0.048-0.025 0.068-0.159 0.086-0.578 0.573-0.834 1.323-0.702 0.238 0.043 0.292 0.057 0.671 0.181 0.349 0.116 0.569 0.174 0.89 0.238 0.648 0.127 0.972 0.159 1.625 0.159 0.936 0 1.568-0.109 2.209-0.381 0.877-0.369 1.557-0.997 1.942-1.795 0.261-0.537 0.381-1.14 0.324-1.634-0.043-0.392-0.138-0.725-0.301-1.051-0.494-0.99-1.534-1.84-2.905-2.377-1.326-0.519-1.856-0.743-2.39-1.011-1.153-0.576-1.756-1.158-1.971-1.906-0.061-0.211-0.086-0.65-0.048-0.872 0.138-0.798 0.662-1.371 1.498-1.64 0.163-0.054 0.474-0.125 0.485-0.111 0.014 0.014 0.165 0.775 0.184 0.915 0.007 0.061 0.027 0.222 0.045 0.356s0.048 0.444 0.066 0.691c0.039 0.505 0.061 0.639 0.14 0.881 0.195 0.603 0.646 1.106 1.237 1.389 0.084 0.041 0.163 0.068 0.172 0.061 0.045-0.027 0.118-0.893 0.118-1.407 0-0.972-0.161-1.96-0.433-2.64-0.102-0.254-0.102-0.249-0.041-0.249 0.102 0 0.501 0.091 0.702 0.159 0.995 0.333 1.663 1.092 1.926 2.187 0.034 0.14 0.084 0.498 0.1 0.725 0.009 0.111 0.027 0.218 0.039 0.231 0.032 0.039 0.075 0.036 0.118-0.007 0.032-0.032 0.036-0.213 0.036-1.672 0-1.45-0.005-1.643-0.034-1.668-0.045-0.039-0.063-0.016-0.097 0.12-0.077 0.31-0.326 0.469-0.732 0.469h-0.197l-0.301-0.156c-0.474-0.245-0.807-0.369-1.344-0.501-0.197-0.048-0.36-0.091-0.365-0.095-0.002-0.005-0.027-0.054-0.052-0.116-0.165-0.378-0.539-0.893-0.931-1.287-0.351-0.351-0.485-0.462-0.804-0.673-0.229-0.15-0.732-0.415-0.872-0.46-0.032-0.009-0.145-0.050-0.252-0.088-0.6-0.224-1.337-0.349-2.502-0.431-0.546-0.039-0.854-0.045-2.144-0.041-0.829 0.002-1.731 0.011-2.005 0.020zM14.375 8.389c0.655 0.079 1.205 0.252 1.745 0.548 0.322 0.177 0.569 0.363 0.859 0.648 0.458 0.449 0.752 0.931 0.936 1.529 0.066 0.218 0.066 0.24 0.011 0.24-0.057 0-0.546 0.127-0.716 0.186-0.283 0.097-0.657 0.267-0.861 0.39-0.154 0.091-0.498 0.351-0.625 0.471-0.202 0.19-0.46 0.535-0.582 0.779-0.079 0.154-0.208 0.514-0.208 0.578 0 0.032-0.009 0.066-0.020 0.079-0.011 0.011-0.039 0.147-0.061 0.301-0.075 0.544-0.005 1.158 0.195 1.65 0.109 0.272 0.204 0.426 0.399 0.65 0.417 0.476 1.133 0.995 1.962 1.418 0.086 0.043 0.154 0.093 0.154 0.109s-0.073 0.15-0.161 0.295c-0.591 0.974-1.35 1.568-2.239 1.749-0.213 0.043-0.308 0.045-1.776 0.045h-1.55l-0.091-0.066c-0.050-0.036-0.113-0.111-0.14-0.165l-0.048-0.1v-5.511c0-4.91 0.005-5.522 0.034-5.594 0.043-0.102 0.091-0.159 0.181-0.213 0.063-0.041 0.138-0.043 1.233-0.043 0.709 0 1.244 0.009 1.371 0.025z"></path>
</symbol>
<symbol id="icon-close-round" viewBox="0 0 32 32">
<path d="M16 0v0c-8.836 0-16 7.163-16 16s7.164 16 16 16c8.837 0 16-7.163 16-16s-7.164-16-16-16zM21.281 9.434c0.355-0.355 0.93-0.355 1.285 0s0.355 0.93 0 1.285l-5.281 5.28 5.281 5.281c0.355 0.355 0.355 0.93 0 1.286s-0.93 0.355-1.285 0l-5.281-5.281-5.281 5.281c-0.355 0.355-0.93 0.355-1.285 0s-0.355-0.93 0-1.286l5.281-5.281-5.281-5.28c-0.355-0.355-0.355-0.93 0-1.285s0.93-0.355 1.285 0l5.281 5.281 5.281-5.281z"></path>
</symbol>
<symbol id="icon-github" viewBox="0 0 32 32">
<path d="M15.999 0.399c-8.835 0-15.999 7.163-15.999 15.999 0 7.070 4.584 13.065 10.941 15.181 0.8 0.148 1.094-0.348 1.094-0.771 0-0.381-0.016-1.642-0.022-2.978-4.452 0.968-5.39-1.889-5.39-1.889-0.728-1.85-1.776-2.342-1.776-2.342-1.452-0.994 0.11-0.972 0.11-0.972 1.606 0.112 2.452 1.648 2.452 1.648 1.428 2.446 3.744 1.738 4.657 1.33 0.144-1.034 0.557-1.74 1.016-2.14-3.554-0.403-7.29-1.776-7.29-7.907 0-1.746 0.626-3.174 1.648-4.294-0.167-0.404-0.715-2.030 0.154-4.234 0 0 1.344-0.431 4.401 1.64 1.276-0.354 2.644-0.532 4.003-0.538 1.36 0.006 2.731 0.184 4.008 0.538 3.054-2.069 4.396-1.64 4.396-1.64 0.87 2.204 0.324 3.832 0.158 4.234 1.026 1.12 1.646 2.548 1.646 4.294 0 6.145-3.744 7.497-7.306 7.893 0.574 0.496 1.087 1.47 1.087 2.962 0 2.14-0.018 3.864-0.018 4.39 0 0.426 0.288 0.924 1.1 0.768 6.354-2.118 10.932-8.114 10.932-15.179 0-8.835-7.163-15.999-16-15.999l-0.001 0.005z"></path>
</symbol>
<symbol id="icon-linkedin" viewBox="0 0 32 32">
<path fill="#000" style="fill: var(--color1, #000)" d="M7.226 0.063h17.549c3.991 0 7.226 3.235 7.226 7.226v17.401c0 3.991-3.235 7.226-7.226 7.226h-17.549c-3.991 0-7.226-3.235-7.226-7.226v-17.401c0-3.991 3.235-7.226 7.226-7.226z"></path>
<path fill="#fff" style="fill: var(--color2, #fff)" d="M12.811 12.409h4.043v2.072h0.059c0.563-1.010 1.94-2.072 3.993-2.072 4.269 0 5.059 2.657 5.059 6.113v7.308h-4.216l-0.001-6.508c0-1.488-0.031-3.403-2.192-3.403-2.195 0-2.532 1.619-2.532 3.295v6.616h-4.213v-13.421zM10.421 8.341c0 1.21-0.982 2.192-2.192 2.192s-2.193-0.982-2.193-2.192c0-1.211 0.982-2.192 2.193-2.192s2.192 0.982 2.192 2.192zM6.036 12.409h4.386v13.421h-4.386v-13.421z"></path>
</symbol>
<symbol id="icon-mail" viewBox="0 0 32 32">
<path d="M15.885 22.892l6.302-6.301 9.584 9.583h-31.771l9.583-9.583 6.302 6.301zM0.364 5.724l15.52 15.52 15.521-15.52h-31.041zM0 23.85l8.228-8.228-8.228-8.228v16.456zM31.969 24.637l-9.015-9.015 9.015-9.015v18.031z"></path>
</symbol>
<symbol id="icon-menu" viewBox="0 0 32 32">
<path d="M2 6h28v6h-28zM2 14h28v6h-28zM2 22h28v6h-28z"></path>
</symbol>
<symbol id="icon-telegram" viewBox="0 0 32 32">
<path d="M16 0c-8.837 0-16 7.163-16 16s7.163 16 16 16c8.837 0 16-7.163 16-16s-7.163-16-16-16zM23.701 8.756l-2.855 14.392s-0.399 0.998-1.497 0.519l-6.567-5.17s7.306-6.567 7.605-6.847c0.299-0.279 0.2-0.339 0.2-0.339 0.020-0.339-0.539 0-0.539 0l-9.681 6.148-4.032-1.357s-0.619-0.22-0.679-0.699c-0.060-0.479 0.699-0.739 0.699-0.739l16.029-6.288s1.317-0.579 1.317 0.379zM15.288 20.553l-2.606 2.375s-0.204 0.154-0.427 0.058l0.499-4.413 2.533 1.979z"></path>
</symbol>
<symbol id="icon-whatsapp" viewBox="0 0 32 32">
<path d="M27.293 4.654c-2.996-3-6.981-4.653-11.226-4.654-8.748 0-15.868 7.119-15.871 15.87-0.002 2.797 0.73 5.528 2.119 7.934l-2.252 8.225 8.414-2.207c2.318 1.265 4.928 1.931 7.584 1.931h0.007c8.747 0 15.867-7.12 15.87-15.87 0.002-4.241-1.648-8.228-4.644-11.228v-0.001zM16.067 29.073h-0.005c-2.367-0.001-4.689-0.637-6.714-1.839l-0.482-0.286-4.993 1.31 1.332-4.868-0.314-0.499c-1.32-2.1-2.018-4.528-2.017-7.020 0.003-7.273 5.921-13.19 13.197-13.19 3.523 0.002 6.835 1.375 9.326 3.869s3.861 5.808 3.86 9.332c-0.003 7.274-5.921 13.191-13.191 13.191v0.001zM23.302 19.194c-0.396-0.199-2.346-1.157-2.71-1.29s-0.628-0.199-0.892 0.199c-0.264 0.397-1.024 1.291-1.256 1.555s-0.463 0.298-0.859 0.099c-0.396-0.199-1.674-0.617-3.189-1.968-1.179-1.052-1.975-2.35-2.206-2.747s-0.024-0.612 0.173-0.809c0.178-0.178 0.396-0.463 0.595-0.695s0.264-0.397 0.396-0.661c0.133-0.265 0.066-0.496-0.033-0.695s-0.892-2.151-1.223-2.944c-0.322-0.773-0.649-0.668-0.892-0.681-0.231-0.011-0.495-0.014-0.76-0.014s-0.694 0.099-1.058 0.496c-0.364 0.397-1.388 1.357-1.388 3.308s1.421 3.838 1.619 4.103c0.199 0.265 2.797 4.27 6.774 5.988 0.946 0.409 1.685 0.653 2.261 0.835 0.95 0.302 1.814 0.26 2.497 0.157 0.762-0.114 2.346-0.96 2.677-1.886s0.33-1.721 0.231-1.886c-0.099-0.165-0.364-0.265-0.76-0.463l0.001-0.002z"></path>
</symbol>
</defs>
</svg>
